<svg width="500" height="500" viewBox="0 0 500 500" fill="none" xmlns="http://www.w3.org/2000/svg"><g clip-path="url(#clip0_1_2)"><path d="M34.1875 169.812C33.6875 169.312 33.3125 168.719 33.0625 168.031C32.875 167.344 32.375 166.781 31.5625 166.344C31.4375 165.406 31.25 164.344 31 163.156C30.8125 161.906 30.5938 160.656 30.3438 159.406C30.1562 158.094 30 156.812 29.875 155.562C29.8125 154.25 29.875 153.062 30.0625 152C30.1875 151.438 30.375 150.906 30.625 150.406C30.9375 149.906 31.2188 149.438 31.4688 149C31.7812 148.5 32 148 32.125 147.5C32.3125 147 32.3438 146.5 32.2188 146C32.5938 145.938 32.8125 145.75 32.875 145.438C33 145.062 33.3125 144.938 33.8125 145.062C34.25 143.688 34.7188 142.406 35.2188 141.219C35.7188 140.031 36.25 138.875 36.8125 137.75C37.375 136.625 37.9375 135.5 38.5 134.375C39.125 133.188 39.6875 131.875 40.1875 130.438C39.125 129.438 38.3438 128.375 37.8438 127.25C37.4062 126.062 37.0625 124.875 36.8125 123.688C36.5625 122.5 36.375 121.312 36.25 120.125C36.125 118.875 35.875 117.625 35.5 116.375C36.25 115.25 37.1562 114.344 38.2188 113.656C39.2812 112.906 40.4375 112.312 41.6875 111.875C43 111.375 44.4062 111 45.9062 110.75C47.4062 110.438 49 110.094 50.6875 109.719C53.6875 108.781 56.375 108.062 58.75 107.562C61.125 107 63.4375 106.562 65.6875 106.25C67.9375 105.875 70.2812 105.562 72.7188 105.312C75.1562 105 77.9688 104.562 81.1562 104C81.2188 104.188 81.3125 104.281 81.4375 104.281C81.625 104.281 81.8438 104.281 82.0938 104.281C82.2812 104.719 82.625 104.938 83.125 104.938C83.125 104.75 83.0938 104.594 83.0312 104.469C83.0312 104.281 83.0312 104.125 83.0312 104C83.1562 104 83.3125 104.031 83.5 104.094C83.75 104.156 83.9375 104.219 84.0625 104.281C84.25 104.344 84.4062 104.344 84.5312 104.281C84.6562 104.156 84.6875 103.938 84.625 103.625C85.375 104.938 86.3438 106.031 87.5312 106.906C88.7188 107.719 90.0312 108.438 91.4688 109.062C91.5312 109.625 91.5312 110.031 91.4688 110.281C91.4688 110.531 91.4375 110.781 91.375 111.031C91.3125 111.219 91.2812 111.469 91.2812 111.781C91.2812 112.031 91.3438 112.406 91.4688 112.906C90.4688 114.594 89.3125 115.906 88 116.844C86.75 117.781 85.4062 118.5 83.9688 119C82.5312 119.5 81 119.875 79.375 120.125C77.8125 120.375 76.1875 120.656 74.5 120.969C72.875 121.219 71.2188 121.594 69.5312 122.094C67.8438 122.594 66.1875 123.344 64.5625 124.344C64.0625 124.156 63.5938 124.094 63.1562 124.156C62.7812 124.156 62.375 124.219 61.9375 124.344C61.5 124.469 61 124.594 60.4375 124.719C59.9375 124.844 59.3125 124.844 58.5625 124.719C58.0625 125.156 57.4688 125.469 56.7812 125.656C56.1562 125.844 55.5 126.031 54.8125 126.219C55.125 126.906 55.25 127.594 55.1875 128.281C55.1875 128.969 55.2812 129.562 55.4688 130.062C58.0938 130.312 61 130.312 64.1875 130.062C67.375 129.75 70.5 129.531 73.5625 129.406C73.625 129.719 73.5938 129.938 73.4688 130.062C73.3438 130.188 73.2812 130.406 73.2812 130.719C73.8438 131.094 74.375 131.562 74.875 132.125C75.375 132.688 75.875 133.25 76.375 133.812C76.9375 134.312 77.5 134.75 78.0625 135.125C78.625 135.438 79.2812 135.562 80.0312 135.5C80.3438 136.125 80.5625 136.781 80.6875 137.469C80.8125 138.156 80.7188 138.875 80.4062 139.625C79.1562 140.438 77.9375 141.281 76.75 142.156C75.5625 142.969 74.3125 143.719 73 144.406C71.75 145.094 70.375 145.656 68.875 146.094C67.375 146.531 65.75 146.719 64 146.656C63.6875 146.656 63.4062 146.656 63.1562 146.656C62.9688 146.656 62.7188 146.531 62.4062 146.281C61.7812 146.594 60.9375 146.719 59.875 146.656C58.875 146.531 58.0312 146.625 57.3438 146.938C56.4688 146.625 55.4375 146.469 54.25 146.469C53.125 146.469 52.125 146.312 51.25 146C50.125 147.625 49.0625 149.344 48.0625 151.156C47.0625 152.906 46.1875 154.781 45.4375 156.781C48 157.156 50.125 157.312 51.8125 157.25C53.5 157.188 55.0938 157.062 56.5938 156.875C58.0938 156.688 59.625 156.5 61.1875 156.312C62.8125 156.125 64.7812 156.062 67.0938 156.125C68.6562 155.375 70.4375 154.875 72.4375 154.625C74.5 154.312 76.4062 153.875 78.1562 153.312C78.7812 153.5 79.3125 153.875 79.75 154.438C80.1875 154.938 80.5938 155.469 80.9688 156.031C81.4062 156.531 81.8438 156.969 82.2812 157.344C82.7188 157.719 83.2812 157.844 83.9688 157.719C84.2812 158.031 84.4688 158.406 84.5312 158.844C84.6562 159.281 84.75 159.688 84.8125 160.062C84.9375 160.438 85.0938 160.75 85.2812 161C85.4688 161.188 85.8125 161.25 86.3125 161.188C85.125 163.625 83.7812 165.5 82.2812 166.812C80.8438 168.125 79.1875 169.156 77.3125 169.906C75.5 170.594 73.4375 171.125 71.125 171.5C68.875 171.812 66.3438 172.219 63.5312 172.719C62.8438 172.844 62.25 172.844 61.75 172.719C61.3125 172.531 60.8438 172.438 60.3438 172.438C58.5938 172.75 56.5 173.062 54.0625 173.375C51.6875 173.688 49.2812 173.812 46.8438 173.75C44.4062 173.688 42.0625 173.375 39.8125 172.812C37.5625 172.25 35.6875 171.25 34.1875 169.812ZM120.344 156.5C120.281 157.375 120.062 158.219 119.688 159.031C119.375 159.781 118.969 160.531 118.469 161.281C117.969 161.969 117.406 162.656 116.781 163.344C116.219 163.969 115.656 164.531 115.094 165.031C115.281 165.844 115.281 166.469 115.094 166.906C114.969 167.281 114.938 167.875 115 168.688C114.062 171.188 112.625 172.844 110.688 173.656C108.812 174.531 107.031 174.375 105.344 173.188C104.656 172.688 104.062 172.062 103.562 171.312C103.125 170.5 102.5 170 101.688 169.812C101.875 168.75 101.781 167.688 101.406 166.625C101.031 165.562 100.625 165 100.188 164.938C100 163.625 99.7188 162.219 99.3438 160.719C98.9688 159.219 98.625 157.719 98.3125 156.219C98 154.656 97.7188 153.156 97.4688 151.719C97.2812 150.219 97.2188 148.844 97.2812 147.594C97.3438 146.969 97.2188 146.406 96.9062 145.906C96.6562 145.406 96.4688 144.812 96.3438 144.125C96.0938 142.688 96 141.188 96.0625 139.625C96.1875 138 96.25 136.469 96.25 135.031C96.25 133.656 96.1562 132.188 95.9688 130.625C95.8438 129 95.7188 127.469 95.5938 126.031C95.4688 124.531 95.4062 123.188 95.4062 122C95.4062 120.75 95.5625 119.781 95.875 119.094C96.25 118.344 96.75 117.75 97.375 117.312C98.0625 116.812 98.6875 116.281 99.25 115.719C100.625 115.844 101.719 116.406 102.531 117.406C103.344 118.406 103.656 119.344 103.469 120.219C104.781 121.031 105.812 122.094 106.562 123.406C107.375 124.656 108 126.094 108.438 127.719C108.938 129.281 109.281 130.969 109.469 132.781C109.656 134.531 109.812 136.281 109.938 138.031C110.062 139.719 110.188 141.344 110.312 142.906C110.438 144.469 110.688 145.812 111.062 146.938C113.375 143.625 115.312 140.688 116.875 138.125C118.438 135.5 120.031 133 121.656 130.625C123.281 128.25 125.094 125.844 127.094 123.406C129.094 120.969 131.688 118.219 134.875 115.156C135.5 115.219 136 115.344 136.375 115.531C136.812 115.719 137.188 115.875 137.5 116C137.812 116.125 138.188 116.25 138.625 116.375C139.062 116.438 139.656 116.406 140.406 116.281C140.656 116.906 140.844 117.375 140.969 117.688C141.094 117.938 141.188 118.219 141.25 118.531C141.375 118.781 141.5 119.125 141.625 119.562C141.812 120 142.094 120.625 142.469 121.438C142.656 121.625 142.719 121.875 142.656 122.188C142.594 122.5 142.531 122.812 142.469 123.125C142.469 123.375 142.469 123.562 142.469 123.688C142.469 123.812 142.625 123.812 142.938 123.688C142.75 124.562 142.406 125.375 141.906 126.125C141.469 126.812 141.281 127.656 141.344 128.656C139.906 130.531 138.312 132.469 136.562 134.469C134.875 136.469 133.156 138.531 131.406 140.656C129.719 142.781 128.094 145.031 126.531 147.406C124.969 149.719 123.625 152.156 122.5 154.719C122.188 154.719 121.938 154.812 121.75 155C121.625 155.188 121.5 155.406 121.375 155.656C121.25 155.844 121.094 156.031 120.906 156.219C120.781 156.406 120.594 156.5 120.344 156.5ZM188.031 120.219C188.094 120.656 188.094 121 188.031 121.25C188.031 121.438 188 121.625 187.938 121.812C187.938 122 187.938 122.219 187.938 122.469C187.938 122.656 188 122.969 188.125 123.406C186.812 125.531 185.281 127 183.531 127.812C181.844 128.562 180 129.125 178 129.5C176 129.812 173.938 130.156 171.812 130.531C169.75 130.906 167.688 131.719 165.625 132.969C164.812 132.656 164.062 132.656 163.375 132.969C162.75 133.281 161.812 133.375 160.562 133.25C160.188 133.625 159.719 133.906 159.156 134.094C158.594 134.219 158.031 134.375 157.469 134.562C157.719 135.125 157.812 135.719 157.75 136.344C157.75 136.906 157.844 137.375 158.031 137.75C160.219 137.938 162.625 137.906 165.25 137.656C167.938 137.406 170.562 137.25 173.125 137.188C173.188 137.5 173.156 137.719 173.031 137.844C172.906 137.906 172.875 138.062 172.938 138.312C173.375 138.625 173.812 139.031 174.25 139.531C174.688 139.969 175.125 140.406 175.562 140.844C176 141.281 176.438 141.656 176.875 141.969C177.375 142.219 177.938 142.312 178.562 142.25C178.812 142.75 178.969 143.312 179.031 143.938C179.156 144.5 179.094 145.094 178.844 145.719C177.844 146.406 176.844 147.125 175.844 147.875C174.844 148.562 173.781 149.188 172.656 149.75C171.594 150.312 170.438 150.781 169.188 151.156C168 151.469 166.656 151.594 165.156 151.531C164.844 151.531 164.594 151.531 164.406 151.531C164.281 151.531 164.094 151.438 163.844 151.25C163.344 151.562 162.625 151.656 161.688 151.531C160.812 151.406 160.125 151.5 159.625 151.812C158.938 151.5 158.094 151.375 157.094 151.438C156.156 151.438 155.312 151.312 154.562 151.062C153.562 152.375 152.656 153.781 151.844 155.281C151.031 156.781 150.312 158.375 149.688 160.062C151.812 160.375 153.562 160.5 154.938 160.438C156.375 160.375 157.719 160.281 158.969 160.156C160.219 159.969 161.5 159.812 162.812 159.688C164.125 159.5 165.781 159.438 167.781 159.5C169.031 158.812 170.5 158.375 172.188 158.188C173.938 157.938 175.531 157.562 176.969 157.062C177.469 157.25 177.906 157.594 178.281 158.094C178.656 158.531 179 158.969 179.312 159.406C179.688 159.781 180.062 160.125 180.438 160.438C180.812 160.75 181.281 160.875 181.844 160.812C182.094 161.062 182.25 161.375 182.312 161.75C182.438 162.062 182.531 162.375 182.594 162.688C182.656 163 182.75 163.281 182.875 163.531C183.062 163.719 183.344 163.781 183.719 163.719C182.781 165.781 181.688 167.375 180.438 168.5C179.25 169.562 177.875 170.375 176.312 170.938C174.75 171.5 173 171.938 171.062 172.25C169.188 172.562 167.094 172.938 164.781 173.375C164.219 173.5 163.75 173.469 163.375 173.281C163 173.156 162.562 173.094 162.062 173.094C160.625 173.406 158.906 173.688 156.906 173.938C154.906 174.188 152.875 174.281 150.812 174.219C148.75 174.156 146.781 173.875 144.906 173.375C143.031 172.938 141.5 172.125 140.312 170.938C139.812 170.5 139.469 170 139.281 169.438C139.156 168.812 138.75 168.344 138.062 168.031C138 167.219 137.875 166.312 137.688 165.312C137.5 164.312 137.312 163.281 137.125 162.219C136.938 161.094 136.781 160 136.656 158.938C136.594 157.875 136.656 156.906 136.844 156.031C137.031 155.094 137.406 154.25 137.969 153.5C138.594 152.75 138.812 151.938 138.625 151.062C138.938 151 139.125 150.844 139.188 150.594C139.25 150.281 139.5 150.156 139.938 150.219C140.312 149.094 140.719 148.031 141.156 147.031C141.594 146.031 142.031 145.062 142.469 144.125C142.969 143.188 143.438 142.25 143.875 141.312C144.375 140.312 144.844 139.219 145.281 138.031C144.406 137.219 143.75 136.344 143.312 135.406C142.938 134.406 142.656 133.438 142.469 132.5C142.281 131.5 142.125 130.5 142 129.5C141.875 128.438 141.656 127.375 141.344 126.312C141.969 125.375 142.719 124.625 143.594 124.062C144.531 123.438 145.531 122.938 146.594 122.562C147.656 122.188 148.812 121.875 150.062 121.625C151.312 121.375 152.625 121.094 154 120.781C156.5 119.969 158.719 119.344 160.656 118.906C162.656 118.469 164.594 118.125 166.469 117.875C168.406 117.562 170.406 117.281 172.469 117.031C174.531 116.781 176.875 116.406 179.5 115.906C180.062 116.469 180.594 116.75 181.094 116.75C181.344 116.188 181.625 116.031 181.938 116.281C182.312 116.469 182.469 116.281 182.406 115.719C183.031 116.781 183.812 117.688 184.75 118.438C185.75 119.125 186.844 119.719 188.031 120.219ZM199.938 163.25C199.25 165.75 198.625 167.656 198.062 168.969C197.562 170.219 196.781 171.531 195.719 172.906C194.906 172.781 194.344 172.875 194.031 173.188C193.719 173.5 193.375 173.781 193 174.031C192.438 174.156 192.031 174.156 191.781 174.031C191.531 173.906 191.312 173.75 191.125 173.562C190.938 173.438 190.688 173.281 190.375 173.094C190.125 172.969 189.719 172.906 189.156 172.906C189.031 172.406 188.875 171.938 188.688 171.5C188.562 171.062 188.156 170.906 187.469 171.031C187.594 170.531 187.625 170.125 187.562 169.812C187.5 169.438 187.406 169.125 187.281 168.875C187.219 168.562 187.156 168.281 187.094 168.031C187.031 167.719 187.062 167.344 187.188 166.906C186.875 166.906 186.625 166.688 186.438 166.25C186.25 165.812 186.031 165.375 185.781 164.938C185.969 163.812 186.156 162.75 186.344 161.75C186.531 160.75 186.75 159.812 187 158.938C187.312 158.062 187.562 157.188 187.75 156.312C187.938 155.438 187.844 154.531 187.469 153.594C187.719 153.781 187.906 153.75 188.031 153.5C188.156 153.188 188.25 152.812 188.312 152.375C188.375 151.875 188.406 151.406 188.406 150.969C188.406 150.469 188.375 150.062 188.312 149.75C188.938 148.125 189.438 146.469 189.812 144.781C190.25 143.031 190.625 141.312 190.938 139.625C191.312 137.938 191.688 136.281 192.062 134.656C192.438 133.031 192.938 131.531 193.562 130.156C194.25 130.031 195 130.125 195.812 130.438C196.688 130.688 197.219 131.031 197.406 131.469C199.031 130.219 200.469 128.719 201.719 126.969C202.969 125.156 204.25 123.406 205.562 121.719C206.875 120.031 208.312 118.531 209.875 117.219C211.5 115.906 213.531 115.125 215.969 114.875C217.219 115.812 218.594 116.781 220.094 117.781C221.656 118.719 222.938 119.969 223.938 121.531C224.438 121.781 224.844 122.062 225.156 122.375C225.531 122.625 225.969 122.906 226.469 123.219V124.344C227.219 125.031 227.812 125.844 228.25 126.781C228.75 127.656 229.188 128.625 229.562 129.688C229.938 130.688 230.312 131.719 230.688 132.781C231.062 133.781 231.5 134.75 232 135.688C231.875 136 231.812 136.281 231.812 136.531C231.812 136.719 231.844 136.938 231.906 137.188C232.031 137.438 232.125 137.688 232.188 137.938C232.25 138.188 232.25 138.531 232.188 138.969C232 141.719 231.094 143.938 229.469 145.625C227.906 147.312 226 148.719 223.75 149.844C221.5 150.906 219.094 151.812 216.531 152.562C213.969 153.312 211.656 154.125 209.594 155C209.594 155.25 209.688 155.375 209.875 155.375C210.125 155.375 210.219 155.531 210.156 155.844C211.656 156.781 212.844 157.531 213.719 158.094C214.594 158.656 215.406 159.125 216.156 159.5C216.969 159.875 217.812 160.219 218.688 160.531C219.625 160.781 220.906 161.094 222.531 161.469C224.156 161.844 225.406 162.156 226.281 162.406C227.219 162.594 228.062 162.781 228.812 162.969C229.562 163.094 230.312 163.219 231.062 163.344C231.875 163.406 233 163.5 234.438 163.625C235 164.188 235.469 164.875 235.844 165.688C236.281 166.438 236.562 167.219 236.688 168.031C236.812 168.781 236.844 169.531 236.781 170.281C236.719 170.969 236.5 171.531 236.125 171.969C236.188 172.156 236.312 172.25 236.5 172.25C236.75 172.188 237 172.188 237.25 172.25C236.875 172.5 236.562 172.812 236.312 173.188C236.062 173.562 235.812 173.938 235.562 174.312C235.312 174.688 235.031 175 234.719 175.25C234.406 175.562 233.969 175.75 233.406 175.812C231.469 176.562 229.031 176.594 226.094 175.906C223.156 175.281 219.438 174.094 214.938 172.344C212.688 171.469 210.844 170.719 209.406 170.094C208.031 169.406 206.812 168.75 205.75 168.125C204.75 167.438 203.812 166.719 202.938 165.969C202.125 165.219 201.125 164.312 199.938 163.25ZM213.344 131.094C212.656 132.094 211.875 133 211 133.812C210.188 134.625 209.375 135.469 208.562 136.344C207.812 137.156 207.125 138.094 206.5 139.156C205.875 140.156 205.438 141.344 205.188 142.719C207.375 142.469 209.656 141.875 212.031 140.938C214.406 139.938 216.656 139 218.781 138.125C218.531 136.188 217.844 134.625 216.719 133.438C215.656 132.25 214.531 131.469 213.344 131.094ZM264.906 148.438C264.469 148.812 264.094 149.281 263.781 149.844C263.469 150.344 263.156 150.875 262.844 151.438C262.531 152.125 262.188 152.781 261.812 153.406C261.438 154.031 260.969 154.594 260.406 155.094C260.094 156.031 259.781 156.781 259.469 157.344C259.156 157.844 258.656 158.438 257.969 159.125C257.344 161.625 255.875 164.344 253.562 167.281C253.5 167.844 253.312 168.406 253 168.969C252.75 169.469 252.469 169.969 252.156 170.469C252.031 170.656 251.906 170.875 251.781 171.125C251.656 171.312 251.562 171.469 251.5 171.594L251.312 172.531C251 173.031 250.656 173.469 250.281 173.844C249.906 174.219 249.562 174.562 249.25 174.875C249.125 175.062 248.906 175.312 248.594 175.625L247.188 176.188C242.625 175.562 239.844 173.125 238.844 168.875L238.938 167.938C239.062 167.625 239.156 167.312 239.219 167C239.344 166.625 239.469 166.25 239.594 165.875C239.844 165 240.125 164.125 240.438 163.25C240.812 162.375 241.344 161.594 242.031 160.906C242.156 160.469 242.438 159.781 242.875 158.844C243.312 157.844 244.062 156.375 245.125 154.438C246 152.938 246.688 151.75 247.188 150.875C247.688 150 248.094 149.312 248.406 148.812C247.781 147.812 247.031 146.906 246.156 146.094C245.344 144.531 244.625 143.031 244 141.594C243.438 140.156 243 138.875 242.688 137.75C242.625 136.938 242.531 136.25 242.406 135.688C242.281 135.125 242.156 134.531 242.031 133.906C241.844 133.219 241.688 132.531 241.562 131.844C241.438 131.156 241.375 130.438 241.375 129.688C241.062 129.25 240.875 128.812 240.812 128.375L241 127.438C241.188 127 241.219 126.438 241.094 125.75C240.969 125 240.812 124.25 240.625 123.5C240.5 122.875 240.344 122.188 240.156 121.438C240.031 120.688 240 119.938 240.062 119.188C240.125 118.438 240.312 117.75 240.625 117.125C241 116.438 241.594 115.844 242.406 115.344L244 115.25C244.562 115.562 245.094 115.875 245.594 116.188C246.156 116.438 246.688 116.719 247.188 117.031C247.875 117.344 248.531 117.656 249.156 117.969C249.781 118.281 250.438 118.688 251.125 119.188L251.781 120.5L253 121.531V122.562C253.062 122.812 253.094 123.156 253.094 123.594C253.094 124.406 253.219 124.906 253.469 125.094L253.844 126.219C253.844 127.094 253.938 127.938 254.125 128.75C254.312 129.5 254.5 130.219 254.688 130.906C254.875 131.594 255.062 132.312 255.25 133.062C255.438 133.812 255.469 134.625 255.344 135.5C255.719 135.312 256.031 135.094 256.281 134.844C256.406 134.719 256.531 134.625 256.656 134.562C256.781 134.5 256.906 134.406 257.031 134.281L262.562 126.781L262.375 125.844L264.344 123.969C264.844 123.469 265.312 123 265.75 122.562C266.25 122.125 266.656 121.656 266.969 121.156L268 120.406C270 117.281 272.844 115.344 276.531 114.594L277.844 114.406L278.219 115.625C278.469 116.312 278.969 116.938 279.719 117.5C280.531 118.062 281.375 118.594 282.25 119.094L283.094 119.656C283.406 120.281 283.562 120.75 283.562 121.062C283.562 121.375 283.531 121.656 283.469 121.906L283.844 122.844C283.344 124.344 282.719 125.438 281.969 126.125C281.281 126.812 280.594 127.438 279.906 128C279.344 128.5 278.812 128.969 278.312 129.406C277.875 129.781 277.531 130.281 277.281 130.906L276.625 131.656C275.312 132.406 274.469 133.406 274.094 134.656L273.812 135.781H272.688C272.625 135.781 272.469 135.906 272.219 136.156C272.031 136.344 271.719 136.875 271.281 137.75C270.844 138.375 270.531 138.781 270.344 138.969C270.156 139.156 270 139.312 269.875 139.438C269.812 139.688 269.719 139.938 269.594 140.188C269.531 140.375 269.438 140.625 269.312 140.938C268.5 141.75 268 142.375 267.812 142.812C267.625 143.188 267.406 143.625 267.156 144.125C266.906 144.625 266.656 145.125 266.406 145.625C266.219 146.062 265.875 146.531 265.375 147.031L264.906 148.438ZM324.812 157.719C325.188 157.906 325.406 158.219 325.469 158.656C325.531 159.094 325.531 159.438 325.469 159.688C324.344 161.125 323.562 162.125 323.125 162.688C322.688 163.25 322.375 163.688 322.188 164C322 164.25 321.781 164.469 321.531 164.656C321.344 164.844 320.875 165.25 320.125 165.875C317.312 167.562 314.406 169.062 311.406 170.375C308.469 171.688 305.375 172.594 302.125 173.094C301.625 173.781 300.656 174.25 299.219 174.5C297.844 174.812 296.562 175.094 295.375 175.344C295.125 175.219 294.969 175.031 294.906 174.781C294.906 174.594 294.781 174.438 294.531 174.312C294.469 174.938 294.188 175.25 293.688 175.25C293.188 175.312 292.562 175.188 291.812 174.875C291.125 174.625 290.375 174.25 289.562 173.75C288.812 173.312 288.156 172.906 287.594 172.531C287.281 173.031 286.938 173.531 286.562 174.031C286.25 174.531 285.844 174.875 285.344 175.062C284.656 174.938 284.125 174.844 283.75 174.781C283.438 174.719 283.125 174.844 282.812 175.156C282.438 174.969 282.125 174.75 281.875 174.5C281.688 174.25 281.469 174 281.219 173.75C281.031 173.562 280.781 173.375 280.469 173.188C280.219 173 279.844 172.844 279.344 172.719C279.469 172.469 279.406 172.094 279.156 171.594C278.906 171.031 278.531 170.688 278.031 170.562C278.281 170.125 278.156 169.594 277.656 168.969C277.219 168.281 276.875 167.531 276.625 166.719C276.75 166.031 276.844 165.281 276.906 164.469C276.969 163.656 277.344 163.188 278.031 163.062C277.969 162.625 277.875 162.25 277.75 161.938C277.625 161.625 277.5 161.312 277.375 161C277.812 160.625 278.125 160.188 278.312 159.688C278.5 159.125 278.656 158.562 278.781 158C278.906 157.438 279.062 156.875 279.25 156.312C279.438 155.75 279.781 155.281 280.281 154.906C280.844 153.031 281.281 151.656 281.594 150.781C281.906 149.844 282.125 148.938 282.25 148.062C282.438 147.188 282.625 146.25 282.812 145.25C283.062 144.25 283.469 143 284.031 141.5C283.969 140.562 284.062 139.75 284.312 139.062C284.562 138.312 284.812 137.594 285.062 136.906C285.375 136.156 285.625 135.406 285.812 134.656C286 133.844 285.969 132.906 285.719 131.844C284.844 131.906 284.219 132.219 283.844 132.781C283.469 133.281 283.219 133.969 283.094 134.844C282.594 135.344 281.969 135.594 281.219 135.594C280.531 135.531 279.906 135.594 279.344 135.781C277.156 134.906 275.344 133.656 273.906 132.031C272.469 130.406 271.312 128.5 270.438 126.312C271 124.875 271.844 123.688 272.969 122.75C274.094 121.75 275.375 120.938 276.812 120.312C278.25 119.625 279.781 119.094 281.406 118.719C283.031 118.281 284.594 117.875 286.094 117.5C288.531 117.062 290.969 116.562 293.406 116C295.844 115.438 298.469 115.25 301.281 115.438C301.656 115.25 302.094 115.156 302.594 115.156C303.156 115.094 303.719 115.062 304.281 115.062C304.844 115.062 305.375 115.062 305.875 115.062C306.438 115 306.906 114.875 307.281 114.688C307.594 115.062 308.031 115.312 308.594 115.438C309.219 115.5 309.875 115.781 310.562 116.281C311.312 115.719 311.938 115.594 312.438 115.906C313 116.219 313.5 116.562 313.938 116.938C314.375 117.312 314.781 117.656 315.156 117.969C315.594 118.281 316.031 118.438 316.469 118.438C316.906 119 317.438 119.531 318.062 120.031C318.75 120.531 319.375 121.062 319.938 121.625C320.562 122.125 321.062 122.688 321.438 123.312C321.875 123.938 322.094 124.656 322.094 125.469C322.031 125.781 322.125 125.969 322.375 126.031C322.625 126.094 322.812 126.219 322.938 126.406C323 128.344 322.688 130.031 322 131.469C321.375 132.844 320.562 134.125 319.562 135.312C318.625 136.5 317.562 137.625 316.375 138.688C315.25 139.75 314.219 140.875 313.281 142.062C313.906 142.875 314.625 143.594 315.438 144.219C316.25 144.844 317.062 145.469 317.875 146.094C318.75 146.719 319.562 147.375 320.312 148.062C321.062 148.75 321.688 149.562 322.188 150.5C322.312 150.625 322.469 150.75 322.656 150.875C322.844 150.938 323.031 151.031 323.219 151.156C323.406 151.781 323.656 152.438 323.969 153.125C324.281 153.75 324.531 154.375 324.719 155C324.969 155.562 325.125 156.094 325.188 156.594C325.25 157.031 325.125 157.406 324.812 157.719ZM308.312 126.406C305.125 126.281 301.938 126.562 298.75 127.25C295.625 127.938 293 128.906 290.875 130.156C291.938 131.031 293 131.812 294.062 132.5C295.188 133.188 296.062 134.125 296.688 135.312C299.125 134.312 301.281 133.062 303.156 131.562C305.031 130 306.75 128.281 308.312 126.406ZM309.531 156.312C309.719 155.688 310.062 155.188 310.562 154.812C311.062 154.438 311.562 154.094 312.062 153.781C312.562 153.406 313 153.031 313.375 152.656C313.75 152.219 313.906 151.625 313.844 150.875C311.844 149.812 310 149.188 308.312 149C306.688 148.75 305.125 148.75 303.625 149C302.188 149.188 300.781 149.5 299.406 149.938C298.094 150.375 296.75 150.688 295.375 150.875C294.688 152.688 293.969 154.656 293.219 156.781C292.469 158.906 291.75 160.969 291.062 162.969C292.938 162.719 294.656 162.344 296.219 161.844C297.781 161.281 299.281 160.688 300.719 160.062C302.219 159.438 303.656 158.812 305.031 158.188C306.469 157.5 307.969 156.875 309.531 156.312ZM383.031 144.875C382.969 145.625 383.031 146.344 383.219 147.031C383.406 147.719 383.625 148.406 383.875 149.094C384.188 149.719 384.469 150.375 384.719 151.062C384.969 151.75 385.156 152.438 385.281 153.125C385.406 154 385.406 154.969 385.281 156.031C385.156 157.031 384.938 158.031 384.625 159.031C384.312 159.969 383.906 160.844 383.406 161.656C382.906 162.406 382.312 162.969 381.625 163.344C380.75 164.469 379.688 165.344 378.438 165.969C377.188 166.594 376.031 167.344 374.969 168.219C374.281 168.656 373.5 168.969 372.625 169.156C371.812 169.344 370.969 169.531 370.094 169.719C369.406 170.094 368.594 170.5 367.656 170.938C366.719 171.312 365.75 171.688 364.75 172.062C363.75 172.375 362.75 172.625 361.75 172.812C360.75 172.938 359.875 172.969 359.125 172.906C357.25 173.594 355.406 174.031 353.594 174.219C351.844 174.469 349.781 174.344 347.406 173.844C345.156 174.156 343.062 174.062 341.125 173.562C339.25 173.062 337.562 172.281 336.062 171.219C334.625 170.094 333.344 168.781 332.219 167.281C331.156 165.719 330.281 164.094 329.594 162.406C329.094 158.844 329.219 155.625 329.969 152.75C330.719 149.812 331.781 147.125 333.156 144.688C334.594 142.188 336.219 139.906 338.031 137.844C339.844 135.719 341.594 133.656 343.281 131.656C343.656 131.781 343.938 131.781 344.125 131.656C344.375 131.469 344.594 131.25 344.781 131C344.969 130.688 345.156 130.406 345.344 130.156C345.594 129.906 345.875 129.75 346.188 129.688C346.625 128.75 347.25 128.062 348.062 127.625C348.938 127.125 349.625 126.438 350.125 125.562C350.688 125.438 351.156 125.25 351.531 125C351.906 124.75 352.25 124.469 352.562 124.156C352.938 123.844 353.312 123.562 353.688 123.312C354.062 123 354.5 122.781 355 122.656V121.625C356.125 121.125 356.938 120.562 357.438 119.938C358 119.25 358.656 118.438 359.406 117.5C359.969 117.438 360.406 117.406 360.719 117.406C361.094 117.406 361.625 117.344 362.312 117.219C362.812 116.344 363.25 115.688 363.625 115.25C364.062 114.812 364.688 114.344 365.5 113.844C366.25 114.219 367.062 114.469 367.938 114.594C368.875 114.719 369.688 115.125 370.375 115.812C370.438 116.438 370.625 116.938 370.938 117.312C371.25 117.625 371.594 117.938 371.969 118.25C372.344 118.5 372.688 118.781 373 119.094C373.375 119.406 373.625 119.844 373.75 120.406C374 120.469 374.156 120.438 374.219 120.312C374.344 120.188 374.531 120.156 374.781 120.219C374.969 121.094 375.188 121.688 375.438 122C375.688 122.25 375.938 122.781 376.188 123.594C375.875 124.219 375.625 124.875 375.438 125.562C375.312 126.188 374.938 126.656 374.312 126.969C374.25 127.406 374.375 127.656 374.688 127.719C375 127.719 375.188 127.875 375.25 128.188C375.312 128.75 375.219 129.156 374.969 129.406C376.469 131.844 377.812 134.438 379 137.188C380.188 139.875 381.531 142.438 383.031 144.875ZM371.312 153.781C371.562 153.094 371.875 152.531 372.25 152.094C372.688 151.656 372.938 151 373 150.125C372.688 149.625 372.5 149.25 372.438 149C372.375 148.688 372.344 148.219 372.344 147.594C370.969 145.656 369.781 143.594 368.781 141.406C367.781 139.156 366.656 137.062 365.406 135.125C365.281 135.375 365.062 135.625 364.75 135.875C364.438 136.125 364.094 136.062 363.719 135.688C363.594 136.188 363.375 136.562 363.062 136.812C362.75 137 362.406 137.094 362.031 137.094C361.656 137.031 361.25 136.938 360.812 136.812C360.438 136.625 360.094 136.406 359.781 136.156C357.969 137.594 356.156 139 354.344 140.375C352.531 141.75 350.906 143.344 349.469 145.156C349.219 145.281 349.062 145.344 349 145.344C348.938 145.281 348.75 145.312 348.438 145.438C347.938 146.625 347.312 147.719 346.562 148.719C345.875 149.656 345.188 150.625 344.5 151.625C343.812 152.625 343.219 153.688 342.719 154.812C342.219 155.938 341.938 157.25 341.875 158.75C342.938 159.625 344.188 160.156 345.625 160.344C347.062 160.531 348.531 160.562 350.031 160.438C351.594 160.312 353.094 160.125 354.531 159.875C356.031 159.562 357.406 159.406 358.656 159.406C361.281 158.781 363.531 157.969 365.406 156.969C367.281 155.906 369.25 154.844 371.312 153.781ZM434.969 147.688C434.906 148 434.844 148.281 434.781 148.531C434.719 148.719 434.656 148.906 434.594 149.094C434.531 149.281 434.5 149.531 434.5 149.844C434.5 150.094 434.5 150.438 434.5 150.875C432.625 154.188 430.25 156.969 427.375 159.219C424.562 161.469 421.438 163.469 418 165.219C414.625 166.906 411.094 168.469 407.406 169.906C403.719 171.281 400.125 172.781 396.625 174.406C395.125 174.031 393.969 173.406 393.156 172.531C392.406 171.656 391.812 170.656 391.375 169.531C391 168.344 390.719 167.062 390.531 165.688C390.406 164.25 390.281 162.781 390.156 161.281C390.344 160.594 390.594 160.031 390.906 159.594C391.281 159.094 391.469 158.406 391.469 157.531C391.969 155.906 392.469 154.312 392.969 152.75C393.469 151.188 393.781 149.594 393.906 147.969C394.094 147.469 394.438 147.125 394.938 146.938C395.25 143.938 395.25 140.906 394.938 137.844C394.688 134.719 394.188 131.812 393.438 129.125C393.5 128.5 393.562 128.062 393.625 127.812C393.75 127.5 393.75 127.281 393.625 127.156C393.562 126.656 393.719 126.406 394.094 126.406C394.531 126.406 394.969 126.406 395.406 126.406C395.406 125.469 395.219 124.531 394.844 123.594C394.531 122.656 394.219 121.594 393.906 120.406C394.344 119.469 394.625 118.562 394.75 117.688C394.875 116.75 395.156 115.938 395.594 115.25C398.969 116.312 402.188 117.594 405.25 119.094C408.375 120.594 411.438 121.688 414.438 122.375C416.688 124 419 125.625 421.375 127.25C423.75 128.812 425.906 130.562 427.844 132.5C429.781 134.375 431.406 136.531 432.719 138.969C434.031 141.406 434.781 144.312 434.969 147.688ZM412.75 152.844C414.062 152.344 415.344 151.812 416.594 151.25C417.906 150.688 419.094 150.062 420.156 149.375C421.281 148.625 422.281 147.781 423.156 146.844C424.031 145.906 424.75 144.781 425.312 143.469C424.938 142.719 424.438 142.062 423.812 141.5C423.188 140.875 422.562 140.312 421.938 139.812C421.312 139.25 420.688 138.688 420.062 138.125C419.5 137.562 419.031 136.875 418.656 136.062C417.844 135.938 417.125 135.719 416.5 135.406C415.875 135.031 415.25 134.688 414.625 134.375C414.062 134 413.438 133.656 412.75 133.344C412.125 133.031 411.375 132.844 410.5 132.781C409.125 132.094 407.875 131.594 406.75 131.281C405.688 130.969 404.875 130.562 404.312 130.062C403.875 130.062 403.531 130.156 403.281 130.344C403.906 132.719 404.375 134.969 404.688 137.094C405 139.156 405.156 141.25 405.156 143.375C405.219 145.438 405.125 147.562 404.875 149.75C404.625 151.938 404.281 154.312 403.844 156.875C404.469 156.812 405.031 156.688 405.531 156.5C406.094 156.25 406.625 156 407.125 155.75C407.688 155.5 408.25 155.281 408.812 155.094C409.438 154.844 410.156 154.688 410.969 154.625C411.156 154.25 411.406 153.938 411.719 153.688C412.094 153.438 412.438 153.156 412.75 152.844ZM462.625 148.438C462.188 148.812 461.812 149.281 461.5 149.844C461.188 150.344 460.875 150.875 460.562 151.438C460.25 152.125 459.906 152.781 459.531 153.406C459.156 154.031 458.688 154.594 458.125 155.094C457.812 156.031 457.5 156.781 457.188 157.344C456.875 157.844 456.375 158.438 455.688 159.125C455.062 161.625 453.594 164.344 451.281 167.281C451.219 167.844 451.031 168.406 450.719 168.969C450.469 169.469 450.188 169.969 449.875 170.469C449.75 170.656 449.625 170.875 449.5 171.125C449.375 171.312 449.281 171.469 449.219 171.594L449.031 172.531C448.719 173.031 448.375 173.469 448 173.844C447.625 174.219 447.281 174.562 446.969 174.875C446.844 175.062 446.625 175.312 446.312 175.625L444.906 176.188C440.344 175.562 437.562 173.125 436.562 168.875L436.656 167.938C436.781 167.625 436.875 167.312 436.938 167C437.062 166.625 437.188 166.25 437.312 165.875C437.562 165 437.844 164.125 438.156 163.25C438.531 162.375 439.062 161.594 439.75 160.906C439.875 160.469 440.156 159.781 440.594 158.844C441.031 157.844 441.781 156.375 442.844 154.438C443.719 152.938 444.406 151.75 444.906 150.875C445.406 150 445.812 149.312 446.125 148.812C445.5 147.812 444.75 146.906 443.875 146.094C443.062 144.531 442.344 143.031 441.719 141.594C441.156 140.156 440.719 138.875 440.406 137.75C440.344 136.938 440.25 136.25 440.125 135.688C440 135.125 439.875 134.531 439.75 133.906C439.562 133.219 439.406 132.531 439.281 131.844C439.156 131.156 439.094 130.438 439.094 129.688C438.781 129.25 438.594 128.812 438.531 128.375L438.719 127.438C438.906 127 438.938 126.438 438.812 125.75C438.688 125 438.531 124.25 438.344 123.5C438.219 122.875 438.062 122.188 437.875 121.438C437.75 120.688 437.719 119.938 437.781 119.188C437.844 118.438 438.031 117.75 438.344 117.125C438.719 116.438 439.312 115.844 440.125 115.344L441.719 115.25C442.281 115.562 442.812 115.875 443.312 116.188C443.875 116.438 444.406 116.719 444.906 117.031C445.594 117.344 446.25 117.656 446.875 117.969C447.5 118.281 448.156 118.688 448.844 119.188L449.5 120.5L450.719 121.531V122.562C450.781 122.812 450.812 123.156 450.812 123.594C450.812 124.406 450.938 124.906 451.188 125.094L451.562 126.219C451.562 127.094 451.656 127.938 451.844 128.75C452.031 129.5 452.219 130.219 452.406 130.906C452.594 131.594 452.781 132.312 452.969 133.062C453.156 133.812 453.188 134.625 453.062 135.5C453.438 135.312 453.75 135.094 454 134.844C454.125 134.719 454.25 134.625 454.375 134.562C454.5 134.5 454.625 134.406 454.75 134.281L460.281 126.781L460.094 125.844L462.062 123.969C462.562 123.469 463.031 123 463.469 122.562C463.969 122.125 464.375 121.656 464.688 121.156L465.719 120.406C467.719 117.281 470.562 115.344 474.25 114.594L475.562 114.406L475.938 115.625C476.188 116.312 476.688 116.938 477.438 117.5C478.25 118.062 479.094 118.594 479.969 119.094L480.812 119.656C481.125 120.281 481.281 120.75 481.281 121.062C481.281 121.375 481.25 121.656 481.188 121.906L481.562 122.844C481.062 124.344 480.438 125.438 479.688 126.125C479 126.812 478.312 127.438 477.625 128C477.062 128.5 476.531 128.969 476.031 129.406C475.594 129.781 475.25 130.281 475 130.906L474.344 131.656C473.031 132.406 472.188 133.406 471.812 134.656L471.531 135.781H470.406C470.344 135.781 470.188 135.906 469.938 136.156C469.75 136.344 469.438 136.875 469 137.75C468.562 138.375 468.25 138.781 468.062 138.969C467.875 139.156 467.719 139.312 467.594 139.438C467.531 139.688 467.438 139.938 467.312 140.188C467.25 140.375 467.156 140.625 467.031 140.938C466.219 141.75 465.719 142.375 465.531 142.812C465.344 143.188 465.125 143.625 464.875 144.125C464.625 144.625 464.375 145.125 464.125 145.625C463.938 146.062 463.594 146.531 463.094 147.031L462.625 148.438ZM109.797 281.344C109.484 280.656 109.172 280 108.859 279.375C108.547 278.75 108.234 278.188 107.922 277.688C107.172 276.188 106.516 274.844 105.953 273.656C105.391 272.469 104.859 271.094 104.359 269.531C104.547 268.469 104.859 266.688 105.297 264.188C105.797 261.688 106.359 258.969 106.984 256.031C107.609 253.031 108.266 250 108.953 246.938C109.703 243.875 110.453 241.25 111.203 239.062C111.891 237.125 112.641 235.062 113.453 232.875C114.328 230.688 115.266 228.688 116.266 226.875C117.328 225 118.453 223.406 119.641 222.094C120.828 220.781 122.109 220 123.484 219.75C123.859 220.25 124.266 220.656 124.703 220.969C125.141 221.219 125.547 221.406 125.922 221.531C126.984 223.031 128.016 224.312 129.016 225.375C130.016 226.375 131.203 227.375 132.578 228.375C132.203 230.25 131.641 232.344 130.891 234.656C130.203 236.906 129.453 239.188 128.641 241.5C127.891 243.812 127.141 246.062 126.391 248.25C125.641 250.375 125.047 252.219 124.609 253.781C124.234 255.031 123.859 256.469 123.484 258.094C123.172 259.469 122.828 261.125 122.453 263.062C122.141 265 121.828 267.125 121.516 269.438C122.391 269.188 123.359 268.688 124.422 267.938C125.547 267.188 126.578 266.406 127.516 265.594C128.641 264.656 129.734 263.656 130.797 262.594C132.234 261.156 133.453 259.844 134.453 258.656C135.453 257.469 136.359 256.25 137.172 255C138.047 253.688 138.922 252.281 139.797 250.781C140.734 249.219 141.828 247.375 143.078 245.25C144.203 243.438 145.359 241.5 146.547 239.438C147.797 237.375 149.047 235.406 150.297 233.531C151.547 231.656 152.766 229.938 153.953 228.375C155.141 226.75 156.234 225.5 157.234 224.625C157.922 225.312 158.703 226.031 159.578 226.781C160.516 227.531 161.516 228.062 162.578 228.375C163.016 229.062 163.422 229.688 163.797 230.25C164.234 230.75 164.641 231.25 165.016 231.75C165.516 232.438 165.953 233.062 166.328 233.625C166.766 234.188 167.141 234.812 167.453 235.5C167.391 236 167.266 236.656 167.078 237.469C166.953 238.281 166.797 239.188 166.609 240.188C166.422 241.125 166.203 242.094 165.953 243.094C165.766 244.094 165.578 245.062 165.391 246C164.766 248.812 164.297 250.938 163.984 252.375C163.672 253.812 163.453 254.938 163.328 255.75C163.203 256.562 163.109 257.25 163.047 257.812C163.047 258.375 163.047 259.156 163.047 260.156C163.047 260.906 163.109 261.656 163.234 262.406C163.359 263.094 163.484 263.812 163.609 264.562C163.797 265.25 164.109 265.906 164.547 266.531L169.047 263.062C170.297 262.125 171.484 260.812 172.609 259.125C173.797 257.375 174.922 255.406 175.984 253.219C177.109 250.969 178.203 248.562 179.266 246C180.328 243.375 181.391 240.688 182.453 237.938C183.203 235.938 183.953 233.969 184.703 232.031C185.516 230.031 186.328 228.156 187.141 226.406C187.953 224.594 188.734 222.969 189.484 221.531C190.297 220.031 191.078 218.781 191.828 217.781C193.516 218.844 194.953 219.906 196.141 220.969C197.391 222.031 198.453 223.219 199.328 224.531C200.266 225.781 200.984 227.25 201.484 228.938C202.047 230.562 202.453 232.5 202.703 234.75C201.328 237.375 200.047 240.062 198.859 242.812C197.672 245.562 196.484 248.344 195.297 251.156C193.797 254.781 192.234 258.406 190.609 262.031C189.047 265.594 187.297 269 185.359 272.25C183.422 275.5 181.234 278.5 178.797 281.25C176.422 283.938 173.672 286.219 170.547 288.094C169.672 287.906 168.922 287.812 168.297 287.812C167.609 287.812 167.016 287.906 166.516 288.094C166.078 288.281 165.672 288.531 165.297 288.844C162.734 287.656 160.672 285.906 159.109 283.594C157.547 281.219 156.016 278.594 154.516 275.719C154.328 275.281 154.109 274.875 153.859 274.5C153.672 274.062 153.453 273.625 153.203 273.188L151.609 270.281L150.672 268.5L149.359 269.719L147.391 271.5L146.266 272.625C144.328 274.438 142.359 276.219 140.359 277.969C138.359 279.656 136.266 281.219 134.078 282.656C131.891 284.031 129.547 285.156 127.047 286.031C124.609 286.906 121.984 287.375 119.172 287.438C118.672 287.188 118.203 286.969 117.766 286.781C117.391 286.594 117.016 286.406 116.641 286.219C115.203 285.531 114.016 284.875 113.078 284.25C112.141 283.625 111.047 282.656 109.797 281.344ZM246.578 280.125C246.203 281.188 245.641 282.281 244.891 283.406C244.203 284.469 243.359 285.438 242.359 286.312C241.422 287.125 240.359 287.812 239.172 288.375C237.984 288.938 236.734 289.25 235.422 289.312C234.609 289.125 234.047 288.906 233.734 288.656C233.484 288.469 233.203 288.281 232.891 288.094C232.703 287.969 232.516 287.875 232.328 287.812C232.203 287.688 232.078 287.594 231.953 287.531L230.828 287.062L231.203 285.844C231.328 285.344 231.297 284.969 231.109 284.719C230.922 284.406 230.547 284 229.984 283.5C229.797 283.312 229.609 283.125 229.422 282.938C229.234 282.75 229.078 282.562 228.953 282.375L227.359 280.594L229.891 279.938C231.453 279.5 232.484 278.938 232.984 278.25C233.547 277.562 233.766 276.406 233.641 274.781C232.391 274.531 231.328 274.5 230.453 274.688C229.641 274.875 228.797 275.094 227.922 275.344C226.797 275.656 225.641 275.938 224.453 276.188C223.328 276.375 222.078 276.469 220.703 276.469C220.203 276.469 219.734 276.469 219.297 276.469C218.859 276.406 218.391 276.344 217.891 276.281L216.953 276.094C216.828 275.406 216.703 275.031 216.578 274.969C216.453 274.844 216.328 274.719 216.203 274.594C215.891 274.281 215.547 273.875 215.172 273.375C214.859 272.812 214.797 272.125 214.984 271.312C214.672 270.75 214.484 270.188 214.422 269.625C214.047 270.375 213.766 271.156 213.578 271.969L213.203 272.906L212.266 273.094C212.141 273.156 212.047 273.312 211.984 273.562C211.922 273.75 211.891 273.906 211.891 274.031L211.422 275.625C211.297 275.75 211.172 275.875 211.047 276C210.922 276.062 210.797 276.156 210.672 276.281C210.547 276.844 210.391 277.406 210.203 277.969C210.016 278.531 209.828 279.062 209.641 279.562C209.328 280.375 209.047 281.188 208.797 282C208.609 282.75 208.547 283.5 208.609 284.25L208.234 285.281C207.922 285.656 207.578 285.969 207.203 286.219C206.828 286.406 206.453 286.594 206.078 286.781C205.953 286.906 205.766 287.031 205.516 287.156C205.328 287.219 205.172 287.281 205.047 287.344L204.766 288.375L203.641 288.562C202.953 288.688 202.453 288.781 202.141 288.844C201.891 288.906 201.578 288.938 201.203 288.938L200.266 288.844C199.578 288.281 199.047 287.844 198.672 287.531C198.297 287.156 197.859 286.812 197.359 286.5C196.797 285.75 196.484 285.188 196.422 284.812C196.359 284.438 196.297 284.094 196.234 283.781C196.109 283.406 196.047 283.094 196.047 282.844C195.984 282.594 195.891 282.406 195.766 282.281L194.547 281.156L195.578 280.312L195.672 278.719C196.922 275.531 198.234 272.469 199.609 269.531C201.047 266.594 202.516 263.594 204.016 260.531C204.516 259.531 204.984 258.531 205.422 257.531C205.922 256.531 206.422 255.531 206.922 254.531C206.859 254.344 206.828 254.125 206.828 253.875C206.828 253.625 206.891 253.344 207.016 253.031C207.703 251.969 208.266 251.031 208.703 250.219C209.141 249.344 209.578 248.469 210.016 247.594C210.516 246.531 211.016 245.5 211.516 244.5C212.078 243.5 212.766 242.469 213.578 241.406L215.078 240.75C215.266 240.688 215.484 240.625 215.734 240.562C215.984 240.438 216.266 240.375 216.578 240.375L217.984 240.562C219.734 239.75 221.266 238.625 222.578 237.188C223.891 235.688 225.234 233.906 226.609 231.844L227.547 230.531L228.766 231.281C229.078 231.469 229.516 231.656 230.078 231.844C230.641 231.969 231.234 232.125 231.859 232.312C232.984 232.562 234.047 232.844 235.047 233.156C236.047 233.469 236.859 233.938 237.484 234.562C237.859 235.562 238.078 236.312 238.141 236.812C238.203 237.312 238.297 237.812 238.422 238.312C238.609 239.375 238.766 240.438 238.891 241.5C239.078 242.562 239.203 243.75 239.266 245.062C239.578 246.125 239.828 247.188 240.016 248.25C240.266 249.25 240.484 250.281 240.672 251.344C240.984 252.844 241.297 254.312 241.609 255.75C241.922 257.125 242.328 258.438 242.828 259.688C243.328 259.688 243.641 259.719 243.766 259.781C244.078 259.656 244.391 259.562 244.703 259.5C245.078 259.438 245.484 259.375 245.922 259.312L246.953 259.219L247.328 260.156C247.391 260.469 247.703 260.781 248.266 261.094C249.078 261.156 249.672 261.344 250.047 261.656C250.422 261.906 250.766 262.188 251.078 262.5C251.328 262.75 251.578 262.938 251.828 263.062L253.234 263.625L252.484 265.031C251.859 266.156 250.953 267.25 249.766 268.312C248.641 269.312 247.359 270.156 245.922 270.844C245.984 271.219 246.016 271.594 246.016 271.969C246.078 272.281 246.172 272.625 246.297 273C246.484 274.062 246.641 275.156 246.766 276.281C246.891 277.406 246.891 278.562 246.766 279.75L246.578 280.125ZM219.484 263.906C221.359 263.781 223.047 263.656 224.547 263.531C226.109 263.344 227.828 263.062 229.703 262.688C229.266 260.812 228.797 258.875 228.297 256.875C227.797 254.812 227.266 252.781 226.703 250.781L226.141 251.719C224.891 253.031 223.672 254.5 222.484 256.125C221.359 257.75 220.391 259.281 219.578 260.719C219.203 261.281 218.828 261.844 218.453 262.406C218.078 262.969 217.734 263.531 217.422 264.094C217.797 264.031 218.141 264 218.453 264C218.828 264 219.172 263.969 219.484 263.906ZM271.984 270.938C271.422 271.062 271.016 271.406 270.766 271.969C270.516 272.469 270.266 273 270.016 273.562C269.828 274.125 269.609 274.656 269.359 275.156C269.172 275.594 268.859 275.812 268.422 275.812C268.359 276.312 268.172 276.75 267.859 277.125C267.609 277.5 267.359 277.906 267.109 278.344C266.859 278.719 266.672 279.156 266.547 279.656C266.422 280.094 266.484 280.625 266.734 281.25C266.234 281.625 265.922 282.156 265.797 282.844C265.672 283.531 265.516 284.188 265.328 284.812C265.203 285.438 264.953 285.969 264.578 286.406C264.203 286.844 263.516 287.031 262.516 286.969C262.328 287.219 262.297 287.375 262.422 287.438C262.547 287.5 262.641 287.719 262.703 288.094C262.016 287.969 261.484 288 261.109 288.188C260.797 288.438 260.391 288.594 259.891 288.656C258.703 288.281 257.703 287.625 256.891 286.688C256.141 285.75 255.453 284.719 254.828 283.594C254.266 282.406 253.734 281.219 253.234 280.031C252.797 278.844 252.359 277.812 251.922 276.938C252.109 276.25 252.141 275.594 252.016 274.969C251.891 274.281 251.672 273.719 251.359 273.281C254.422 266.781 257.766 259.844 261.391 252.469C265.016 245.094 268.453 237.812 271.703 230.625C273.141 231.188 274.547 231.844 275.922 232.594C277.359 233.281 278.641 234.094 279.766 235.031C280.953 235.969 281.953 237.062 282.766 238.312C283.578 239.5 284.109 240.844 284.359 242.344C284.234 242.719 284.078 242.875 283.891 242.812C283.766 242.688 283.641 242.719 283.516 242.906C283.766 243.219 283.891 243.438 283.891 243.562C283.953 243.688 283.953 243.812 283.891 243.938C283.891 244.062 283.891 244.25 283.891 244.5C283.891 244.688 283.984 244.969 284.172 245.344C283.922 245.281 283.734 245.312 283.609 245.438C283.547 245.562 283.359 245.562 283.047 245.438C283.297 246.125 283.359 246.688 283.234 247.125C283.172 247.562 283.047 247.969 282.859 248.344C282.672 248.656 282.516 249.031 282.391 249.469C282.266 249.844 282.297 250.344 282.484 250.969C282.297 250.969 282.141 251.031 282.016 251.156C281.953 251.219 281.891 251.312 281.828 251.438C281.766 251.5 281.672 251.594 281.547 251.719C281.484 251.781 281.359 251.781 281.172 251.719C281.359 253.094 281.422 254.469 281.359 255.844C281.297 257.219 281.234 258.625 281.172 260.062C281.172 261.438 281.203 262.906 281.266 264.469C281.328 265.969 281.547 267.531 281.922 269.156C284.172 267.844 285.953 266.156 287.266 264.094C288.641 262.031 289.734 259.719 290.547 257.156C291.422 254.594 292.078 251.844 292.516 248.906C292.953 245.969 293.422 242.969 293.922 239.906C294.484 239.344 294.922 238.656 295.234 237.844C295.547 237.031 295.828 236.188 296.078 235.312C296.328 234.375 296.578 233.469 296.828 232.594C297.078 231.656 297.391 230.812 297.766 230.062C298.703 230.188 299.484 230.5 300.109 231C300.797 231.438 301.422 231.938 301.984 232.5C302.547 233 303.141 233.5 303.766 234C304.391 234.438 305.172 234.719 306.109 234.844C306.859 235.906 307.547 236.938 308.172 237.938C308.797 238.938 309.203 240 309.391 241.125C309.078 241.625 308.828 242.188 308.641 242.812C308.516 243.438 308.359 244.062 308.172 244.688C307.984 245.312 307.734 245.906 307.422 246.469C307.109 246.969 306.672 247.406 306.109 247.781C305.922 249.406 305.672 250.906 305.359 252.281C305.109 253.594 304.828 254.906 304.516 256.219C304.266 257.531 304.047 258.906 303.859 260.344C303.672 261.719 303.609 263.25 303.672 264.938C303.172 266.375 302.641 267.906 302.078 269.531C301.516 271.156 301.078 272.625 300.766 273.938C299.766 274.75 298.984 275.719 298.422 276.844C297.859 277.969 297.266 279.094 296.641 280.219C296.391 280.469 296.234 280.531 296.172 280.406C296.109 280.281 295.891 280.188 295.516 280.125C295.578 280.375 295.578 280.562 295.516 280.688C295.453 280.812 295.359 280.938 295.234 281.062C295.172 281.125 295.109 281.25 295.047 281.438C295.047 281.625 295.109 281.875 295.234 282.188C294.359 282.562 293.578 283.094 292.891 283.781C292.203 284.469 291.453 285.094 290.641 285.656C289.891 286.219 288.953 286.594 287.828 286.781C286.766 286.969 285.359 286.75 283.609 286.125C281.047 284.25 278.766 282.094 276.766 279.656C274.828 277.219 273.234 274.312 271.984 270.938ZM360.297 242.906C358.734 242.906 357.047 243.031 355.234 243.281C353.422 243.469 351.641 243.688 349.891 243.938C348.641 244.125 347.422 244.281 346.234 244.406C345.109 244.531 344.078 244.625 343.141 244.688C342.703 246.062 342.266 247.281 341.828 248.344C341.391 249.406 340.922 250.438 340.422 251.438C339.922 252.5 339.453 253.594 339.016 254.719C338.641 255.781 338.266 256.938 337.891 258.188C337.266 259.188 336.734 260.125 336.297 261C335.922 261.812 335.609 262.75 335.359 263.812C334.609 264.75 334.047 265.75 333.672 266.812C333.297 267.812 333.016 268.688 332.828 269.438L332.453 270.562C332.078 270.938 331.859 271.25 331.797 271.5C331.734 271.688 331.578 271.875 331.328 272.062C331.266 272.75 331.047 273.438 330.672 274.125C330.547 274.438 330.453 274.75 330.391 275.062C330.328 275.312 330.297 275.5 330.297 275.625C330.297 276.25 330.141 276.656 329.828 276.844C329.891 277.156 329.891 277.5 329.828 277.875C329.766 278.188 329.703 278.5 329.641 278.812C329.453 279.562 329.391 280.156 329.453 280.594C329.641 280.844 329.797 281.062 329.922 281.25C330.109 281.438 330.234 281.688 330.297 282C330.672 282.25 330.953 282.406 331.141 282.469C331.391 282.656 331.766 282.875 332.266 283.125L333.109 284.062C333.422 285.875 333.141 287.312 332.266 288.375C331.328 289.562 329.734 290.156 327.484 290.156H326.359C326.047 289.844 325.859 289.594 325.797 289.406C325.297 289.219 324.891 289.062 324.578 288.938C324.266 288.812 323.984 288.562 323.734 288.188C322.922 287.812 322.266 287.5 321.766 287.25L320.922 286.781C320.922 286.094 320.922 285.719 320.922 285.656C320.484 285.094 320.141 284.469 319.891 283.781C319.703 283.094 319.547 282.406 319.422 281.719C319.297 281.156 319.141 280.625 318.953 280.125C318.828 279.625 318.641 279.188 318.391 278.812C318.266 275.188 318.609 272.125 319.422 269.625C320.234 267.125 321.078 264.719 321.953 262.406C322.453 261.156 322.953 259.906 323.453 258.656C323.953 257.344 324.391 256 324.766 254.625L325.609 253.688C326.047 252.688 326.391 251.875 326.641 251.25C326.953 250.562 327.266 249.875 327.578 249.188C327.766 248.75 327.922 248.344 328.047 247.969C328.234 247.531 328.391 247.156 328.516 246.844C328.141 246.844 327.797 246.875 327.484 246.938C327.172 246.938 326.859 246.969 326.547 247.031C326.172 247.094 325.828 247.156 325.516 247.219C325.203 247.219 324.891 247.219 324.578 247.219C324.141 247.219 323.828 247.188 323.641 247.125C322.953 247.438 322.203 247.594 321.391 247.594H320.453C320.266 247.594 320.078 247.594 319.891 247.594C319.766 247.531 319.641 247.5 319.516 247.5C318.891 247.5 318.391 247.594 318.016 247.781C317.266 247.781 316.547 247.781 315.859 247.781H314.922C314.797 247.781 314.641 247.812 314.453 247.875C314.266 247.875 314.109 247.875 313.984 247.875C313.547 247.875 313.078 247.844 312.578 247.781C312.078 247.656 311.547 247.438 310.984 247.125C310.234 246.125 309.734 245.594 309.484 245.531L308.641 244.406C308.578 244.031 308.484 243.688 308.359 243.375C308.234 243 308.109 242.594 307.984 242.156C307.734 241.531 307.484 240.875 307.234 240.188C307.047 239.438 306.953 238.562 306.953 237.562C307.016 237.062 307.141 236.688 307.328 236.438C307.516 236.188 307.672 235.969 307.797 235.781L308.078 234.375L309.297 234.469H311.922C313.922 234.469 315.953 234.406 318.016 234.281C320.078 234.094 322.203 233.906 324.391 233.719C325.641 233.594 326.891 233.469 328.141 233.344C329.453 233.219 330.797 233.094 332.172 232.969C332.422 232.406 332.672 231.875 332.922 231.375L333.859 230.906C334.984 230.844 335.766 231 336.203 231.375C336.703 231.688 337.109 232 337.422 232.312C338.797 232.188 340.172 232.062 341.547 231.938C342.984 231.75 344.422 231.531 345.859 231.281C347.984 230.969 350.109 230.688 352.234 230.438C354.422 230.188 356.516 230.062 358.516 230.062C359.391 230.062 360.234 230.094 361.047 230.156C361.859 230.219 362.609 230.312 363.297 230.438L364.234 231.094C364.422 231.469 364.672 231.812 364.984 232.125C365.359 232.438 365.734 232.75 366.109 233.062C366.859 233.75 367.609 234.562 368.359 235.5C369.109 236.438 369.391 237.812 369.203 239.625C368.703 240.375 368.328 240.812 368.078 240.938L367.234 242.062L366.297 241.969C365.922 241.969 365.578 242.031 365.266 242.156C364.953 242.219 364.641 242.312 364.328 242.438C364.078 242.562 363.828 242.688 363.578 242.812C363.328 242.875 363.047 242.938 362.734 243C362.172 243 361.703 243 361.328 243C361.016 242.938 360.672 242.906 360.297 242.906ZM354.484 245.812C354.922 244.5 355.609 243.375 356.547 242.438C357.547 241.5 358.609 240.719 359.734 240.094C360.922 239.406 362.141 238.844 363.391 238.406C364.641 237.969 365.828 237.594 366.953 237.281C369.453 236.219 372.109 235.219 374.922 234.281C377.797 233.281 380.703 232.406 383.641 231.656C386.641 230.906 389.703 230.438 392.828 230.25C395.953 230 399.234 230.375 402.672 231.375C402.859 232 403.141 232.594 403.516 233.156C403.891 233.719 404.266 234.281 404.641 234.844C405.078 235.406 405.453 235.969 405.766 236.531C406.078 237.031 406.266 237.562 406.328 238.125C406.953 238.688 407.453 239.312 407.828 240C408.203 240.625 408.266 241.469 408.016 242.531C407.391 243.031 406.766 243.5 406.141 243.938C405.578 244.312 404.953 244.656 404.266 244.969C401.953 244.406 399.609 244.219 397.234 244.406C394.859 244.594 392.734 244.75 390.859 244.875C390.297 244.312 389.609 244.031 388.797 244.031C388.047 244.031 387.234 244.156 386.359 244.406C385.547 244.656 384.703 244.906 383.828 245.156C383.016 245.406 382.234 245.469 381.484 245.344C380.859 245.844 380.078 246.188 379.141 246.375C378.266 246.5 377.297 246.625 376.234 246.75C376.172 247.062 376.234 247.281 376.422 247.406C376.609 247.469 376.641 247.656 376.516 247.969C376.891 248.406 377.359 248.719 377.922 248.906C378.547 249.094 379.172 249.281 379.797 249.469C380.484 249.656 381.078 249.906 381.578 250.219C382.078 250.469 382.422 250.906 382.609 251.531C383.547 251.531 384.359 251.75 385.047 252.188C385.734 252.625 386.297 253.156 386.734 253.781C387.172 254.406 387.484 255.094 387.672 255.844C387.922 256.531 388.047 257.156 388.047 257.719C388.234 258.219 388.453 258.438 388.703 258.375C388.953 258.312 389.234 258.438 389.547 258.75C389.734 259.562 390.203 260.406 390.953 261.281C391.703 262.094 392.297 263 392.734 264C392.859 265.562 392.953 266.969 393.016 268.219C393.078 269.406 392.859 270.625 392.359 271.875C391.422 274.188 390.109 276.25 388.422 278.062C386.797 279.875 384.922 281.5 382.797 282.938C380.734 284.312 378.516 285.5 376.141 286.5C373.766 287.5 371.453 288.344 369.203 289.031C368.953 288.969 368.703 288.969 368.453 289.031C368.203 289.094 368.141 288.938 368.266 288.562C367.766 289 367.203 289.281 366.578 289.406C366.016 289.531 365.391 289.562 364.703 289.5C364.016 289.5 363.297 289.469 362.547 289.406C361.859 289.344 361.203 289.375 360.578 289.5C360.141 289.062 359.734 288.625 359.359 288.188C359.047 287.812 358.797 287.312 358.609 286.688C358.297 286.688 358.141 286.531 358.141 286.219C358.203 285.906 358.109 285.75 357.859 285.75C358.234 285.125 358.391 284.781 358.328 284.719C358.328 284.594 358.234 284.5 358.047 284.438C357.922 284.375 357.797 284.312 357.672 284.25C357.547 284.125 357.516 283.969 357.578 283.781C357.828 283.281 357.922 282.719 357.859 282.094C357.797 281.406 357.734 280.719 357.672 280.031C357.609 279.344 357.641 278.688 357.766 278.062C357.953 277.438 358.422 276.938 359.172 276.562C361.297 276.812 363.297 276.75 365.172 276.375C367.109 275.938 368.922 275.344 370.609 274.594C372.297 273.844 373.891 273.031 375.391 272.156C376.953 271.281 378.484 270.5 379.984 269.812C380.172 269.25 380.422 268.781 380.734 268.406C381.109 268.031 381.484 267.688 381.859 267.375C382.234 267.062 382.578 266.719 382.891 266.344C383.203 265.969 383.422 265.5 383.547 264.938C383.609 264.5 383.484 264.25 383.172 264.188C382.922 264.062 382.797 263.812 382.797 263.438L381.766 263.156C380.578 262.469 379.234 261.906 377.734 261.469C376.234 260.969 374.953 260.438 373.891 259.875C373.203 260.25 372.547 260.344 371.922 260.156C371.359 259.969 370.609 259.781 369.672 259.594C367.547 259.469 365.484 259.25 363.484 258.938C361.547 258.625 359.672 258.062 357.859 257.25C357.734 256.938 357.578 256.656 357.391 256.406C357.203 256.156 356.859 256.094 356.359 256.219C355.984 255.719 355.609 255.25 355.234 254.812C354.859 254.312 354.516 253.781 354.203 253.219C354.328 252.469 354.422 251.844 354.484 251.344C354.547 250.781 354.359 250.25 353.922 249.75C354.172 248.938 354.359 248.281 354.484 247.781C354.609 247.281 354.609 246.625 354.484 245.812ZM130.188 360.719C130.375 359.781 130.5 359.031 130.562 358.469C130.625 357.844 130.406 357.188 129.906 356.5C130.156 355.5 130.344 354.719 130.469 354.156C130.656 353.594 130.688 352.812 130.562 351.812C131.125 350.188 131.969 348.812 133.094 347.688C134.281 346.562 135.562 345.625 136.938 344.875C138.312 344.062 139.75 343.406 141.25 342.906C142.75 342.344 144.156 341.875 145.469 341.5C145.469 341.25 145.344 341.125 145.094 341.125C144.844 341.125 144.781 340.969 144.906 340.656C148.281 340.031 151.656 339.125 155.031 337.938C158.469 336.75 161.969 335.688 165.531 334.75C169.094 333.812 172.75 333.25 176.5 333.062C180.25 332.812 184.188 333.281 188.312 334.469C188.562 335.219 188.906 335.938 189.344 336.625C189.781 337.312 190.219 338 190.656 338.688C191.156 339.312 191.594 339.938 191.969 340.562C192.344 341.188 192.562 341.844 192.625 342.531C193.375 343.219 193.969 343.969 194.406 344.781C194.906 345.531 195 346.562 194.688 347.875C194 348.375 193.281 348.875 192.531 349.375C191.781 349.875 191 350.344 190.188 350.781C187.375 350.094 184.562 349.844 181.75 350.031C178.938 350.219 176.406 350.438 174.156 350.688C173.469 349.938 172.656 349.594 171.719 349.656C170.781 349.656 169.781 349.812 168.719 350.125C167.719 350.375 166.719 350.656 165.719 350.969C164.719 351.219 163.781 351.281 162.906 351.156C162.219 351.781 161.312 352.219 160.188 352.469C159.062 352.656 157.875 352.812 156.625 352.938C156.562 353.25 156.625 353.469 156.812 353.594C157 353.719 157.031 353.969 156.906 354.344C157.344 354.906 157.938 355.312 158.688 355.562C159.438 355.75 160.188 355.938 160.938 356.125C161.75 356.312 162.469 356.594 163.094 356.969C163.719 357.281 164.125 357.812 164.312 358.562C165.438 358.625 166.406 358.938 167.219 359.5C168.031 360 168.719 360.625 169.281 361.375C169.844 362.125 170.25 362.938 170.5 363.812C170.75 364.625 170.844 365.375 170.781 366.062C171.031 366.688 171.281 366.938 171.531 366.812C171.844 366.688 172.188 366.844 172.562 367.281C172.812 368.219 173.375 369.219 174.25 370.281C175.188 371.281 175.906 372.375 176.406 373.562C176.531 375.438 176.625 377.125 176.688 378.625C176.812 380.125 176.562 381.594 175.938 383.031C174.875 385.781 173.344 388.25 171.344 390.438C169.344 392.625 167.062 394.562 164.5 396.25C162 397.875 159.344 399.312 156.531 400.562C153.719 401.75 150.938 402.75 148.188 403.562C147.938 403.5 147.625 403.5 147.25 403.562C146.938 403.625 146.875 403.438 147.062 403C146.5 403.5 145.844 403.812 145.094 403.938C144.406 404.062 143.625 404.094 142.75 404.031C141.938 404.031 141.094 404 140.219 403.938C139.406 403.875 138.594 403.906 137.781 404.031C137.281 403.531 136.812 403.031 136.375 402.531C136 402.031 135.688 401.438 135.438 400.75C135.125 400.688 134.969 400.5 134.969 400.188C135.031 399.812 134.906 399.625 134.594 399.625C134.594 399.375 134.625 399.188 134.688 399.062C134.75 398.938 134.812 398.812 134.875 398.688C135.125 398.5 135.219 398.375 135.156 398.312C135.156 398.188 135.062 398.094 134.875 398.031C134.75 397.906 134.594 397.781 134.406 397.656C134.281 397.531 134.25 397.375 134.312 397.188C134.625 396.625 134.719 395.969 134.594 395.219C134.531 394.406 134.469 393.594 134.406 392.781C134.344 391.969 134.406 391.219 134.594 390.531C134.781 389.781 135.312 389.156 136.188 388.656C138.75 388.906 141.156 388.781 143.406 388.281C145.719 387.781 147.875 387.094 149.875 386.219C151.938 385.344 153.875 384.406 155.688 383.406C157.562 382.344 159.375 381.375 161.125 380.5C161.312 379.875 161.594 379.344 161.969 378.906C162.406 378.469 162.844 378.062 163.281 377.688C163.719 377.25 164.125 376.812 164.5 376.375C164.875 375.875 165.156 375.281 165.344 374.594C165.406 374.344 165.406 374.156 165.344 374.031C165.281 373.906 165.188 373.812 165.062 373.75C164.938 373.625 164.812 373.5 164.688 373.375C164.562 373.25 164.5 373.062 164.5 372.812C164.312 372.75 164.125 372.688 163.938 372.625C163.812 372.562 163.688 372.531 163.562 372.531C161.938 371.719 160.219 371.031 158.406 370.469C156.594 369.906 155.062 369.281 153.812 368.594C153.062 369.094 152.312 369.219 151.562 368.969C150.812 368.719 149.906 368.469 148.844 368.219C146.219 368.094 143.719 367.844 141.344 367.469C139.031 367.094 136.781 366.438 134.594 365.5C134.469 365.125 134.312 364.812 134.125 364.562C133.938 364.25 133.5 364.156 132.812 364.281C132.375 363.656 131.906 363.094 131.406 362.594C130.969 362.031 130.562 361.406 130.188 360.719ZM237.062 374.875C237 375.625 237.062 376.344 237.25 377.031C237.438 377.719 237.656 378.406 237.906 379.094C238.219 379.719 238.5 380.375 238.75 381.062C239 381.75 239.188 382.438 239.312 383.125C239.438 384 239.438 384.969 239.312 386.031C239.188 387.031 238.969 388.031 238.656 389.031C238.344 389.969 237.938 390.844 237.438 391.656C236.938 392.406 236.344 392.969 235.656 393.344C234.781 394.469 233.719 395.344 232.469 395.969C231.219 396.594 230.062 397.344 229 398.219C228.312 398.656 227.531 398.969 226.656 399.156C225.844 399.344 225 399.531 224.125 399.719C223.438 400.094 222.625 400.5 221.688 400.938C220.75 401.312 219.781 401.688 218.781 402.062C217.781 402.375 216.781 402.625 215.781 402.812C214.781 402.938 213.906 402.969 213.156 402.906C211.281 403.594 209.438 404.031 207.625 404.219C205.875 404.469 203.812 404.344 201.438 403.844C199.188 404.156 197.094 404.062 195.156 403.562C193.281 403.062 191.594 402.281 190.094 401.219C188.656 400.094 187.375 398.781 186.25 397.281C185.188 395.719 184.312 394.094 183.625 392.406C183.125 388.844 183.25 385.625 184 382.75C184.75 379.812 185.812 377.125 187.188 374.688C188.625 372.188 190.25 369.906 192.062 367.844C193.875 365.719 195.625 363.656 197.312 361.656C197.688 361.781 197.969 361.781 198.156 361.656C198.406 361.469 198.625 361.25 198.812 361C199 360.688 199.188 360.406 199.375 360.156C199.625 359.906 199.906 359.75 200.219 359.688C200.656 358.75 201.281 358.062 202.094 357.625C202.969 357.125 203.656 356.438 204.156 355.562C204.719 355.438 205.188 355.25 205.562 355C205.938 354.75 206.281 354.469 206.594 354.156C206.969 353.844 207.344 353.562 207.719 353.312C208.094 353 208.531 352.781 209.031 352.656V351.625C210.156 351.125 210.969 350.562 211.469 349.938C212.031 349.25 212.688 348.438 213.438 347.5C214 347.438 214.438 347.406 214.75 347.406C215.125 347.406 215.656 347.344 216.344 347.219C216.844 346.344 217.281 345.688 217.656 345.25C218.094 344.812 218.719 344.344 219.531 343.844C220.281 344.219 221.094 344.469 221.969 344.594C222.906 344.719 223.719 345.125 224.406 345.812C224.469 346.438 224.656 346.938 224.969 347.312C225.281 347.625 225.625 347.938 226 348.25C226.375 348.5 226.719 348.781 227.031 349.094C227.406 349.406 227.656 349.844 227.781 350.406C228.031 350.469 228.188 350.438 228.25 350.312C228.375 350.188 228.562 350.156 228.812 350.219C229 351.094 229.219 351.688 229.469 352C229.719 352.25 229.969 352.781 230.219 353.594C229.906 354.219 229.656 354.875 229.469 355.562C229.344 356.188 228.969 356.656 228.344 356.969C228.281 357.406 228.406 357.656 228.719 357.719C229.031 357.719 229.219 357.875 229.281 358.188C229.344 358.75 229.25 359.156 229 359.406C230.5 361.844 231.844 364.438 233.031 367.188C234.219 369.875 235.562 372.438 237.062 374.875ZM225.344 383.781C225.594 383.094 225.906 382.531 226.281 382.094C226.719 381.656 226.969 381 227.031 380.125C226.719 379.625 226.531 379.25 226.469 379C226.406 378.688 226.375 378.219 226.375 377.594C225 375.656 223.812 373.594 222.812 371.406C221.812 369.156 220.688 367.062 219.438 365.125C219.312 365.375 219.094 365.625 218.781 365.875C218.469 366.125 218.125 366.062 217.75 365.688C217.625 366.188 217.406 366.562 217.094 366.812C216.781 367 216.438 367.094 216.062 367.094C215.688 367.031 215.281 366.938 214.844 366.812C214.469 366.625 214.125 366.406 213.812 366.156C212 367.594 210.188 369 208.375 370.375C206.562 371.75 204.938 373.344 203.5 375.156C203.25 375.281 203.094 375.344 203.031 375.344C202.969 375.281 202.781 375.312 202.469 375.438C201.969 376.625 201.344 377.719 200.594 378.719C199.906 379.656 199.219 380.625 198.531 381.625C197.844 382.625 197.25 383.688 196.75 384.812C196.25 385.938 195.969 387.25 195.906 388.75C196.969 389.625 198.219 390.156 199.656 390.344C201.094 390.531 202.562 390.562 204.062 390.438C205.625 390.312 207.125 390.125 208.562 389.875C210.062 389.562 211.438 389.406 212.688 389.406C215.312 388.781 217.562 387.969 219.438 386.969C221.312 385.906 223.281 384.844 225.344 383.781ZM307.656 401.312C307.031 401.625 306.438 401.906 305.875 402.156C305.375 402.406 304.781 402.531 304.094 402.531C301.656 400.719 300.375 397.562 300.25 393.062C300.188 388.562 301.156 382.844 303.156 375.906C303.469 375.719 303.625 375.344 303.625 374.781L302.781 373.844C302.531 373.844 302.281 373.875 302.031 373.938C301.844 374 301.688 374.219 301.562 374.594C299.938 375.781 298.156 377.031 296.219 378.344C294.281 379.594 292.25 380.781 290.125 381.906C288.062 382.969 285.938 383.844 283.75 384.531C281.625 385.219 279.531 385.562 277.469 385.562C272.219 385.562 268.281 382.906 265.656 377.594L264.906 376.188L264.156 377.406C263.969 377.656 263.688 378.188 263.312 379C262.938 379.75 262.562 380.625 262.188 381.625C261.812 382.625 261.469 383.656 261.156 384.719C260.906 385.719 260.812 386.594 260.875 387.344C260.312 387.906 259.719 388.562 259.094 389.312C258.469 390.062 258 390.906 257.688 391.844C257.562 392.344 257.625 392.812 257.875 393.25C257.75 393.812 257.469 394.25 257.031 394.562C256.781 394.875 256.5 395.188 256.188 395.5C255.938 395.75 255.719 396.031 255.531 396.344C255.406 396.656 255.312 396.969 255.25 397.281C255.25 397.594 255.219 397.906 255.156 398.219C255.156 398.656 255.094 399.062 254.969 399.438C253.906 401.625 253.062 403.031 252.438 403.656C251.812 404.344 250.969 404.688 249.906 404.688C249.406 404.688 248.594 404.594 247.469 404.406C246.656 403.531 245.906 402.344 245.219 400.844C244.594 399.281 244.094 397.625 243.719 395.875C243.406 394.125 243.25 392.375 243.25 390.625C243.312 388.812 243.625 387.25 244.188 385.938C244.188 385.875 244.438 385.25 244.938 384.062C245.438 382.875 246.062 381.344 246.812 379.469C247.625 377.594 248.531 375.531 249.531 373.281C250.531 370.969 251.531 368.75 252.531 366.625C253.531 364.438 254.469 362.438 255.344 360.625C256.281 358.812 257.062 357.438 257.688 356.5C258.188 355.75 258.625 355.062 259 354.438C259.438 353.75 259.844 353.094 260.219 352.469C261.344 350.531 262.406 348.938 263.406 347.688C264.469 346.375 266 345.344 268 344.594C269.375 345.156 270.375 345.812 271 346.562L271.188 347.594C271.438 348.219 271.812 348.531 272.312 348.531C273 348.719 273.562 348.906 274 349.094C274.5 349.219 275.031 349.344 275.594 349.469C276.031 349.969 276.438 350.562 276.812 351.25C277.312 352 277.781 352.75 278.219 353.5C278.719 354.188 279.094 354.906 279.344 355.656C279.656 356.344 279.812 357.062 279.812 357.812C279.875 358.562 279.75 359.344 279.438 360.156L279.531 361.094C279.844 361.656 279.906 362.438 279.719 363.438C279.656 363.875 279.625 364.344 279.625 364.844C279.625 365.281 279.688 365.781 279.812 366.344C280.938 367.219 281.938 367.656 282.812 367.656C283.812 367.656 284.719 367.438 285.531 367C286.406 366.5 287.219 366 287.969 365.5C288.469 365.125 288.969 364.812 289.469 364.562C289.969 364.25 290.469 364.062 290.969 364C292.094 362.938 293.094 362 293.969 361.188C294.906 360.375 295.875 359.562 296.875 358.75C298.75 357.25 300.562 355.625 302.312 353.875C304.062 352.125 305.469 349.938 306.531 347.312C307.156 346.938 307.812 346.75 308.5 346.75C309.188 346.75 309.906 346.906 310.656 347.219C311.406 347.531 312.125 347.844 312.812 348.156C313 348.281 313.156 348.375 313.281 348.438C313.469 348.5 313.625 348.562 313.75 348.625C313.75 349.25 314 349.781 314.5 350.219C314.75 350.406 314.906 350.531 314.969 350.594C315.031 350.656 315.125 350.719 315.25 350.781C316.188 351.281 316.781 351.781 317.031 352.281C317.469 353.719 318.25 354.812 319.375 355.562C319.25 356.188 319.25 356.781 319.375 357.344C319.562 357.844 319.781 358.375 320.031 358.938C320.094 359.125 320.156 359.312 320.219 359.5C320.281 359.688 320.375 359.906 320.5 360.156L318.719 359.969L319 361.75C319.125 362.625 319.031 363.594 318.719 364.656C318.469 365.719 318.156 366.562 317.781 367.188C317.844 368.812 317.875 370.094 317.875 371.031C317.938 371.906 317.906 372.75 317.781 373.562C317.656 374.312 317.469 375.031 317.219 375.719C317.031 376.406 316.75 377.156 316.375 377.969C316.625 381.969 316.156 385.625 314.969 388.938C313.844 392.188 312.656 395.25 311.406 398.125C311.281 398.438 311.125 398.75 310.938 399.062C310.812 399.375 310.688 399.688 310.562 400C310 400.188 309.5 400.406 309.062 400.656C308.625 400.844 308.156 401.062 307.656 401.312ZM373.281 350.219C373.344 350.656 373.344 351 373.281 351.25C373.281 351.438 373.25 351.625 373.188 351.812C373.188 352 373.188 352.219 373.188 352.469C373.188 352.656 373.25 352.969 373.375 353.406C372.062 355.531 370.531 357 368.781 357.812C367.094 358.562 365.25 359.125 363.25 359.5C361.25 359.812 359.188 360.156 357.062 360.531C355 360.906 352.938 361.719 350.875 362.969C350.062 362.656 349.312 362.656 348.625 362.969C348 363.281 347.062 363.375 345.812 363.25C345.438 363.625 344.969 363.906 344.406 364.094C343.844 364.219 343.281 364.375 342.719 364.562C342.969 365.125 343.062 365.719 343 366.344C343 366.906 343.094 367.375 343.281 367.75C345.469 367.938 347.875 367.906 350.5 367.656C353.188 367.406 355.812 367.25 358.375 367.188C358.438 367.5 358.406 367.719 358.281 367.844C358.156 367.906 358.125 368.062 358.188 368.312C358.625 368.625 359.062 369.031 359.5 369.531C359.938 369.969 360.375 370.406 360.812 370.844C361.25 371.281 361.688 371.656 362.125 371.969C362.625 372.219 363.188 372.312 363.812 372.25C364.062 372.75 364.219 373.312 364.281 373.938C364.406 374.5 364.344 375.094 364.094 375.719C363.094 376.406 362.094 377.125 361.094 377.875C360.094 378.562 359.031 379.188 357.906 379.75C356.844 380.312 355.688 380.781 354.438 381.156C353.25 381.469 351.906 381.594 350.406 381.531C350.094 381.531 349.844 381.531 349.656 381.531C349.531 381.531 349.344 381.438 349.094 381.25C348.594 381.562 347.875 381.656 346.938 381.531C346.062 381.406 345.375 381.5 344.875 381.812C344.188 381.5 343.344 381.375 342.344 381.438C341.406 381.438 340.562 381.312 339.812 381.062C338.812 382.375 337.906 383.781 337.094 385.281C336.281 386.781 335.562 388.375 334.938 390.062C337.062 390.375 338.812 390.5 340.188 390.438C341.625 390.375 342.969 390.281 344.219 390.156C345.469 389.969 346.75 389.812 348.062 389.688C349.375 389.5 351.031 389.438 353.031 389.5C354.281 388.812 355.75 388.375 357.438 388.188C359.188 387.938 360.781 387.562 362.219 387.062C362.719 387.25 363.156 387.594 363.531 388.094C363.906 388.531 364.25 388.969 364.562 389.406C364.938 389.781 365.312 390.125 365.688 390.438C366.062 390.75 366.531 390.875 367.094 390.812C367.344 391.062 367.5 391.375 367.562 391.75C367.688 392.062 367.781 392.375 367.844 392.688C367.906 393 368 393.281 368.125 393.531C368.312 393.719 368.594 393.781 368.969 393.719C368.031 395.781 366.938 397.375 365.688 398.5C364.5 399.562 363.125 400.375 361.562 400.938C360 401.5 358.25 401.938 356.312 402.25C354.438 402.562 352.344 402.938 350.031 403.375C349.469 403.5 349 403.469 348.625 403.281C348.25 403.156 347.812 403.094 347.312 403.094C345.875 403.406 344.156 403.688 342.156 403.938C340.156 404.188 338.125 404.281 336.062 404.219C334 404.156 332.031 403.875 330.156 403.375C328.281 402.938 326.75 402.125 325.562 400.938C325.062 400.5 324.719 400 324.531 399.438C324.406 398.812 324 398.344 323.312 398.031C323.25 397.219 323.125 396.312 322.938 395.312C322.75 394.312 322.562 393.281 322.375 392.219C322.188 391.094 322.031 390 321.906 388.938C321.844 387.875 321.906 386.906 322.094 386.031C322.281 385.094 322.656 384.25 323.219 383.5C323.844 382.75 324.062 381.938 323.875 381.062C324.188 381 324.375 380.844 324.438 380.594C324.5 380.281 324.75 380.156 325.188 380.219C325.562 379.094 325.969 378.031 326.406 377.031C326.844 376.031 327.281 375.062 327.719 374.125C328.219 373.188 328.688 372.25 329.125 371.312C329.625 370.312 330.094 369.219 330.531 368.031C329.656 367.219 329 366.344 328.562 365.406C328.188 364.406 327.906 363.438 327.719 362.5C327.531 361.5 327.375 360.5 327.25 359.5C327.125 358.438 326.906 357.375 326.594 356.312C327.219 355.375 327.969 354.625 328.844 354.062C329.781 353.438 330.781 352.938 331.844 352.562C332.906 352.188 334.062 351.875 335.312 351.625C336.562 351.375 337.875 351.094 339.25 350.781C341.75 349.969 343.969 349.344 345.906 348.906C347.906 348.469 349.844 348.125 351.719 347.875C353.656 347.562 355.656 347.281 357.719 347.031C359.781 346.781 362.125 346.406 364.75 345.906C365.312 346.469 365.844 346.75 366.344 346.75C366.594 346.188 366.875 346.031 367.188 346.281C367.562 346.469 367.719 346.281 367.656 345.719C368.281 346.781 369.062 347.688 370 348.438C371 349.125 372.094 349.719 373.281 350.219Z" fill="currentColor"/></g><defs><clipPath id="clip0_1_2"><rect width="500" height="500" fill="white"/></clipPath></defs></svg>