<svg xmlns="http://www.w3.org/2000/svg" viewBox="0 0 512 512">
<path fill="currentColor" d="M193.268 302.071C186.449 302.071 180.936 307.576 180.936 314.385C180.936 321.209 186.449 326.714 193.268 326.714C200.087 326.714 205.6 321.209 205.6 314.385C205.6 307.576 200.087 302.071 193.268 302.071ZM305.328 338.5C298.806 338.5 293.532 343.767 293.532 350.28C293.532 356.806 298.806 362.071 305.328 362.071C311.851 362.071 317.123 356.806 317.123 350.28C317.123 343.767 311.851 338.5 305.328 338.5ZM481.792 368.707C477.815 370.698 472.102 370.803 466.827 368.979C463.266 367.721 459.423 366.538 455.597 365.359C448.495 363.192 436.625 359.573 434.366 356.834C430.657 351.886 423.614 350.901 418.666 354.637C413.719 358.361 412.731 365.372 416.469 370.325C417.709 371.998 419.384 373.374 421.073 374.703C403.941 398.422 328.718 445.612 222.337 422.358C174.402 411.879 142.137 392.74 129.009 367.033C119.545 348.46 121.698 329.337 126.228 318.944C139.251 291.894 233.251 229.6 293.267 194.325C298.59 191.171 300.369 184.307 297.229 178.968C294.09 173.646 286.928 171.507 281.89 174.991C277.045 177.833 260.583 187.612 239.576 200.92C232.474 196.15 220.199 190.258 200.522 188.33C169.318 185.234 97.2068 171.462 73.9124 161.608C57.2266 154.551 19.3539 135.86 27.7417 114.82C29.6855 109.916 38.8209 101.976 58.6168 94.4092C73.8675 88.5925 89.043 85.3776 100.512 84.0919C98.9708 84.8392 97.4759 85.5571 96.0712 86.2448C82.5845 92.7946 67.8719 100.121 57.9889 108.779C57.2711 108.315 56.5236 107.852 56.0154 107.344C51.754 102.887 44.727 102.559 40.1817 106.985C35.6961 111.262 35.5315 118.364 39.8226 122.835C43.8147 127.021 49.7207 130.177 57.2413 132.584C57.5257 132.674 57.7797 132.809 58.0637 132.868C84.1991 140.913 130.669 139.912 196.187 137.31C224.43 136.204 251.104 135.157 273.352 135.59C347.106 137.055 402.534 166.393 442.812 225.294C467.559 261.479 458.634 297.128 444.476 328.11C442.782 326.81 440.977 325.12 439.616 323.445C435.744 318.615 428.578 317.942 423.87 321.666C419.028 325.539 418.217 332.581 422.077 337.426C424.349 340.298 436.042 353.74 450.528 352.59C450.796 352.603 451.035 352.574 451.304 352.557C451.741 352.498 452.187 352.574 452.652 352.498C462.548 350.691 468.768 351.168 474.585 354.818C482.287 359.678 486.085 362.575 485.32 365C484.871 366.525 483.72 367.616 481.792 368.707ZM175.987 243.79C173.759 245.42 171.577 247.035 169.378 248.65C167.016 246.108 165.132 243.686 164.264 241.921C166.866 241.143 171.203 242.07 175.987 243.79ZM485.379 335.139C479.835 331.625 474.017 330.099 468.365 329.471C481.641 297.098 490.092 254.721 461.325 212.628C417.306 148.225 354.196 114.761 273.786 113.16C250.88 112.711 223.877 113.773 195.304 114.91C162.127 116.226 117.975 117.945 87.9668 115.463C93.9479 112.219 100.317 109.108 105.834 106.432C126.946 96.1589 143.572 88.1588 138.07 73.9686C135.184 65.6844 126.587 61.3331 112.458 61.019C82.7189 60.3464 18.4568 77.5424 6.8992 106.537C0.395565 122.865 -0.681389 154.386 65.1806 182.244C92.2729 193.727 168.795 207.723 198.325 210.654C206.668 211.462 213.052 213.151 217.897 214.946C211.124 219.402 204.171 224.082 197.189 228.867C185.063 221.958 165.237 213.809 150.435 223.903C144.708 227.775 141.448 233.488 141.299 239.993C141.09 248.082 145.994 255.992 151.511 262.362C129.712 279.752 112.084 296.605 105.834 309.598C98.8667 325.569 96.0261 351.705 109.034 377.202C125.54 409.56 162.037 432.126 217.537 444.266C290.068 460.101 352.713 445.834 394.159 424.019C417.23 411.879 433.601 397.386 441.557 384.453C444.026 385.233 446.492 386.025 449.032 386.818C452.577 387.892 456.122 388.97 459.44 390.152C470.414 393.947 482.557 393.439 491.902 388.731C492.065 388.654 492.242 388.551 492.422 388.462C499.466 384.751 504.535 378.801 506.761 371.625C512.742 352.276 495.669 341.583 485.379 335.139Z"/>
</svg>
